<?xml version="1.0" encoding="UTF-8"?>
<svg width="26px" height="25px" viewBox="0 0 26 25" version="1.1" xmlns="http://www.w3.org/2000/svg" xmlns:xlink="http://www.w3.org/1999/xlink">
    <!-- Generator: Sketch 48.2 (47327) - http://www.bohemiancoding.com/sketch -->
    <title>Shape</title>
    <desc>Created with Sketch.</desc>
    <defs></defs>
    <g id="2" stroke="none" stroke-width="1" fill="none" fill-rule="evenodd" transform="translate(-340.000000, -115.000000)">
        <path d="M364.011416,115 C364.565449,115 365.035388,115.192756 365.421233,115.578268 C365.807078,115.963779 366,116.433313 366,116.986868 L366,118.49926 C366,119.052815 365.807078,119.522349 365.421233,119.907861 C365.035388,120.293372 364.565449,120.486128 364.011416,120.486128 L341.988584,120.486128 C341.434551,120.486128 340.964612,120.293372 340.578767,119.907861 C340.192922,119.522349 340,119.052815 340,118.49926 L340,116.986868 C340,116.433313 340.192922,115.963779 340.578767,115.578268 C340.964612,115.192756 341.434551,115 341.988584,115 L364.011416,115 Z M364.011416,124.281936 C364.565449,124.281936 365.035388,124.474692 365.421233,124.860203 C365.807078,125.245715 366,125.715249 366,126.268804 L366,127.781196 C366,128.334751 365.807078,128.804285 365.421233,129.189797 C365.035388,129.575308 364.565449,129.768064 364.011416,129.768064 L341.988584,129.768064 C341.434551,129.768064 340.964612,129.575308 340.578767,129.189797 C340.192922,128.804285 340,128.334751 340,127.781196 L340,126.268804 C340,125.715249 340.192922,125.245715 340.578767,124.860203 C340.964612,124.474692 341.434551,124.281936 341.988584,124.281936 L364.011416,124.281936 Z M364.011416,133.563872 C364.565449,133.563872 365.035388,133.756628 365.421233,134.142139 C365.807078,134.527651 366,134.997185 366,135.55074 L366,137.063132 C366,137.616687 365.807078,138.086221 365.421233,138.471732 C365.035388,138.857244 364.565449,139.05 364.011416,139.05 L341.988584,139.05 C341.434551,139.05 340.964612,138.857244 340.578767,138.471732 C340.192922,138.086221 340,137.616687 340,137.063132 L340,135.55074 C340,134.997185 340.192922,134.527651 340.578767,134.142139 C340.964612,133.756628 341.434551,133.563872 341.988584,133.563872 L364.011416,133.563872 Z" id="Shape" fill="#9D9D9D" fill-rule="nonzero" transform="translate(353.000000, 127.025000) scale(-1, 1) translate(-353.000000, -127.025000) "></path>
    </g>
</svg>